<svg width="130" height="126" viewBox="0 0 130 126" fill="none" xmlns="http://www.w3.org/2000/svg">
<path d="M75.8332 74.823V85.7955C70.9307 84.1155 65.6838 83.6003 60.5333 84.2929C55.3827 84.9855 50.4788 86.8659 46.2334 89.7761C41.988 92.6863 38.525 96.5413 36.1353 101.017C33.7456 105.494 32.4988 110.46 32.4998 115.5L21.6665 115.495C21.6648 109.084 23.1773 102.758 26.0881 97.0011C28.9989 91.2444 33.2307 86.2099 38.4593 82.2834C43.6879 78.357 49.7745 75.6427 56.2527 74.3486C62.731 73.0546 69.4288 73.2151 75.8332 74.8178V74.823ZM64.9998 68.25C47.0436 68.25 32.4998 54.1538 32.4998 36.75C32.4998 19.3463 47.0436 5.25002 64.9998 5.25002C82.9561 5.25002 97.4998 19.3463 97.4998 36.75C97.4998 54.1538 82.9561 68.25 64.9998 68.25ZM64.9998 57.75C76.9707 57.75 86.6665 48.3525 86.6665 36.75C86.6665 25.1475 76.9707 15.75 64.9998 15.75C53.029 15.75 43.3332 25.1475 43.3332 36.75C43.3332 48.3525 53.029 57.75 64.9998 57.75ZM100.674 89.25L90.7669 79.653L98.4315 72.2243L121.409 94.5L98.4315 116.776L90.7669 109.347L100.674 99.75H81.2498V89.25H100.674Z" fill="white"/>
</svg>
