<svg width="39" height="39" viewBox="0 0 39 39" fill="none" xmlns="http://www.w3.org/2000/svg">
<path d="M3.25 15.4375V6.5C3.25 6.06902 3.4212 5.6557 3.72595 5.35095C4.0307 5.0462 4.44402 4.875 4.875 4.875H34.125C34.556 4.875 34.9693 5.0462 35.274 5.35095C35.5788 5.6557 35.75 6.06902 35.75 6.5V15.4375C34.6726 15.4375 33.6392 15.8655 32.8774 16.6274C32.1155 17.3892 31.6875 18.4226 31.6875 19.5C31.6875 20.5774 32.1155 21.6108 32.8774 22.3726C33.6392 23.1345 34.6726 23.5625 35.75 23.5625V32.5C35.75 32.931 35.5788 33.3443 35.274 33.649C34.9693 33.9538 34.556 34.125 34.125 34.125H4.875C4.44402 34.125 4.0307 33.9538 3.72595 33.649C3.4212 33.3443 3.25 32.931 3.25 32.5V23.5625C4.32744 23.5625 5.36075 23.1345 6.12262 22.3726C6.88449 21.6108 7.3125 20.5774 7.3125 19.5C7.3125 18.4226 6.88449 17.3892 6.12262 16.6274C5.36075 15.8655 4.32744 15.4375 3.25 15.4375ZM6.5 12.948C7.72071 13.553 8.74814 14.487 9.46645 15.6446C10.1847 16.8023 10.5654 18.1376 10.5654 19.5C10.5654 20.8624 10.1847 22.1977 9.46645 23.3554C8.74814 24.513 7.72071 25.447 6.5 26.052V30.875H32.5V26.052C31.2793 25.447 30.2519 24.513 29.5336 23.3554C28.8153 22.1977 28.4346 20.8624 28.4346 19.5C28.4346 18.1376 28.8153 16.8023 29.5336 15.6446C30.2519 14.487 31.2793 13.553 32.5 12.948V8.125H6.5V12.948ZM14.625 14.625H24.375V17.875H14.625V14.625ZM14.625 21.125H24.375V24.375H14.625V21.125Z" fill="white"/>
</svg>
