<svg width="50" height="50" viewBox="0 0 50 50" fill="none" xmlns="http://www.w3.org/2000/svg">
<path d="M24.9998 4.16663C36.4998 4.16663 45.8332 13.5 45.8332 25C45.8332 36.5 36.4998 45.8333 24.9998 45.8333C13.4998 45.8333 4.1665 36.5 4.1665 25C4.1665 13.5 13.4998 4.16663 24.9998 4.16663ZM24.9998 41.6666C34.2082 41.6666 41.6665 34.2083 41.6665 25C41.6665 15.7916 34.2082 8.33329 24.9998 8.33329C15.7915 8.33329 8.33317 15.7916 8.33317 25C8.33317 34.2083 15.7915 41.6666 24.9998 41.6666ZM24.9998 22.9166H33.3332V27.0833H24.9998V33.3333L16.6665 25L24.9998 16.6666V22.9166Z" fill="black"/>
</svg>
