<svg width="40" height="34" viewBox="0 0 40 34" fill="none" xmlns="http://www.w3.org/2000/svg">
<path d="M31.9 18.3317C31.9666 17.9067 32 17.4675 32 17C32 16.5467 31.9666 16.0934 31.8833 15.6684L35.2666 13.43C35.5666 13.2317 35.65 12.8492 35.4666 12.5659L32.2666 7.86252C32.0666 7.55086 31.65 7.45169 31.2833 7.55086L27.3 8.91086C26.4666 8.37252 25.5833 7.91919 24.6 7.57919L24 3.98086C23.9333 3.64086 23.6 3.40002 23.2 3.40002H16.8C16.4 3.40002 16.0833 3.64086 16.0166 3.98086L15.4166 7.57919C14.4333 7.91919 13.5333 8.38669 12.7166 8.91086L8.73331 7.55086C8.36665 7.43752 7.94998 7.55086 7.74998 7.86252L4.56665 12.5659C4.36665 12.8634 4.43331 13.2317 4.76665 13.43L8.14998 15.6684C8.06665 16.0934 7.99998 16.5609 7.99998 17C7.99998 17.4392 8.03331 17.9067 8.11665 18.3317L4.73331 20.57C4.43331 20.7684 4.34998 21.1509 4.53331 21.4342L7.73331 26.1375C7.93331 26.4492 8.34998 26.5484 8.71665 26.4492L12.7 25.0892C13.5333 25.6275 14.4166 26.0809 15.4 26.4209L16 30.0192C16.0833 30.3592 16.4 30.6 16.8 30.6H23.2C23.6 30.6 23.9333 30.3592 23.9833 30.0192L24.5833 26.4209C25.5666 26.0809 26.4666 25.6275 27.2833 25.0892L31.2666 26.4492C31.6333 26.5625 32.05 26.4492 32.25 26.1375L35.45 21.4342C35.65 21.1225 35.5666 20.7684 35.25 20.57L31.9 18.3317ZM20 22.1C16.7 22.1 14 19.805 14 17C14 14.195 16.7 11.9 20 11.9C23.3 11.9 26 14.195 26 17C26 19.805 23.3 22.1 20 22.1Z" fill="white"/>
</svg>
