<svg width="25" height="25" viewBox="0 0 25 25" fill="none" xmlns="http://www.w3.org/2000/svg">
<path d="M2.5 7.5H22.5V23.75C22.5 24.0815 22.3683 24.3995 22.1339 24.6339C21.8995 24.8683 21.5815 25 21.25 25H3.75C3.41848 25 3.10054 24.8683 2.86612 24.6339C2.6317 24.3995 2.5 24.0815 2.5 23.75V7.5ZM5 10V22.5H20V10H5ZM8.75 12.5H11.25V20H8.75V12.5ZM13.75 12.5H16.25V20H13.75V12.5ZM6.25 3.75V1.25C6.25 0.918479 6.3817 0.600537 6.61612 0.366116C6.85054 0.131696 7.16848 0 7.5 0H17.5C17.8315 0 18.1495 0.131696 18.3839 0.366116C18.6183 0.600537 18.75 0.918479 18.75 1.25V3.75H25V6.25H0V3.75H6.25ZM8.75 2.5V3.75H16.25V2.5H8.75Z" fill="#0D0C0C"/>
</svg>
