<svg width="30" height="30" viewBox="0 0 30 30" fill="none" xmlns="http://www.w3.org/2000/svg">
<path d="M5 10H25V26.25C25 26.5815 24.8683 26.8995 24.6339 27.1339C24.3995 27.3683 24.0815 27.5 23.75 27.5H6.25C5.91848 27.5 5.60054 27.3683 5.36612 27.1339C5.1317 26.8995 5 26.5815 5 26.25V10ZM7.5 12.5V25H22.5V12.5H7.5ZM11.25 15H13.75V22.5H11.25V15ZM16.25 15H18.75V22.5H16.25V15ZM8.75 6.25V3.75C8.75 3.41848 8.8817 3.10054 9.11612 2.86612C9.35054 2.6317 9.66848 2.5 10 2.5H20C20.3315 2.5 20.6495 2.6317 20.8839 2.86612C21.1183 3.10054 21.25 3.41848 21.25 3.75V6.25H27.5V8.75H2.5V6.25H8.75ZM11.25 5V6.25H18.75V5H11.25Z" fill="white"/>
</svg>
