<svg width="90" height="90" viewBox="0 0 90 90" fill="none" xmlns="http://www.w3.org/2000/svg">
<path d="M66.0675 22.38L71.5162 16.9312L76.8187 22.2337L71.37 27.6825C76.7541 34.4219 79.3534 42.967 78.634 51.563C77.9147 60.159 73.9312 68.1532 67.5018 73.9039C61.0724 79.6547 52.6851 82.7253 44.0624 82.4853C35.4398 82.2453 27.2363 78.7127 21.1367 72.6132C15.0372 66.5137 11.5047 58.3102 11.2647 49.6876C11.0246 41.0649 14.0953 32.6776 19.846 26.2482C25.5968 19.8188 33.591 15.8353 42.187 15.1159C50.7829 14.3966 59.3281 16.9959 66.0675 22.38ZM41.25 30V52.5H48.75V30H41.25ZM30 3.75H60V11.25H30V3.75Z" fill="#F4CB38"/>
</svg>
