<svg width="39" height="39" viewBox="0 0 39 39" fill="none" xmlns="http://www.w3.org/2000/svg">
<path d="M8.125 14.625C8.55598 14.625 8.9693 14.7962 9.27405 15.1009C9.57879 15.4057 9.75 15.819 9.75 16.25C12.3031 16.2462 14.7826 17.1051 16.7863 18.6875H20.3125C22.477 18.6875 24.4237 19.6283 25.7611 21.1233L30.875 21.125C32.411 21.1245 33.9157 21.5595 35.2146 22.3795C36.5135 23.1995 37.5533 24.3709 38.2135 25.7578C34.3704 30.8295 28.1483 34.125 21.125 34.125C16.5913 34.125 12.7563 33.1451 9.6525 31.4307C9.53882 31.7444 9.33114 32.0154 9.05778 32.2068C8.78441 32.3982 8.45868 32.5005 8.125 32.5H3.25C2.81902 32.5 2.4057 32.3288 2.10095 32.024C1.7962 31.7193 1.625 31.3059 1.625 30.875V16.25C1.625 15.819 1.7962 15.4057 2.10095 15.1009C2.4057 14.7962 2.81902 14.625 3.25 14.625H8.125ZM9.75163 19.5L9.75 27.6591L9.82312 27.7127C12.74 29.7602 16.5393 30.875 21.125 30.875C26.0065 30.875 30.5484 28.9965 33.8569 25.7887L34.073 25.5726L33.878 25.4101C33.1107 24.8091 32.1805 24.4524 31.2081 24.3863L30.875 24.375L27.443 24.3733C27.5616 24.8966 27.625 25.441 27.625 26V27.625H13V24.375L24.0338 24.3733L23.9785 24.2466C23.6671 23.5958 23.1881 23.0397 22.5906 22.6353C21.9932 22.2309 21.2989 21.9929 20.579 21.9456L20.3125 21.9375H15.5512C14.7961 21.1651 13.8942 20.5516 12.8985 20.133C11.9028 19.7144 10.8334 19.4992 9.75325 19.5H9.75163ZM6.5 17.875H4.875V29.25H6.5V17.875ZM22.1747 5.80933L22.75 6.38621L23.3253 5.81096C23.7019 5.43106 24.15 5.12931 24.6436 4.92303C25.1372 4.71674 25.6667 4.60999 26.2017 4.60889C26.7367 4.6078 27.2666 4.71238 27.7611 4.91665C28.2556 5.12091 28.7048 5.42082 29.083 5.79917C29.4613 6.17752 29.7611 6.62685 29.9652 7.12137C30.1693 7.61589 30.2737 8.14586 30.2725 8.68085C30.2713 9.21584 30.1644 9.74532 29.9579 10.2389C29.7515 10.7324 29.4496 11.1804 29.0696 11.557L22.75 17.875L16.4287 11.5537C16.0489 11.177 15.7471 10.729 15.5408 10.2354C15.3345 9.74176 15.2278 9.21225 15.2267 8.67726C15.2256 8.14227 15.3302 7.61233 15.5344 7.11787C15.7387 6.62341 16.0386 6.17416 16.417 5.79592C16.7953 5.41768 17.2446 5.11789 17.7392 4.91377C18.2337 4.70964 18.7637 4.60521 19.2986 4.60646C19.8336 4.6077 20.3631 4.71461 20.8567 4.92103C21.3502 5.12745 21.7982 5.42933 22.1747 5.80933ZM18.7297 8.10871C18.5951 8.24264 18.5116 8.41953 18.4938 8.60863C18.4759 8.79774 18.5249 8.98711 18.6322 9.14383L18.7265 9.25596L22.75 13.2762L26.7735 9.25596C26.9081 9.12152 26.9913 8.94411 27.0085 8.75466C27.0257 8.56521 26.9759 8.37571 26.8678 8.21921L26.7735 8.10546C26.6389 7.97111 26.4614 7.88826 26.2719 7.87133C26.0825 7.85441 25.8931 7.90448 25.7367 8.01283L25.623 8.10708L22.7484 10.9801L19.877 8.10383L19.7665 8.01283C19.61 7.90469 19.4205 7.85489 19.231 7.87211C19.0416 7.88933 18.8642 7.97249 18.7297 8.10708V8.10871Z" fill="white"/>
</svg>
