<svg width="39" height="39" viewBox="0 0 39 39" fill="none" xmlns="http://www.w3.org/2000/svg">
<path d="M13 4.875V8.125H9.75V14.625C9.75 18.2163 12.6588 21.125 16.25 21.125C19.8413 21.125 22.75 18.2163 22.75 14.625V8.125H19.5V4.875H24.375C25.272 4.875 26 5.603 26 6.5V14.625C26 19.4561 22.4867 23.465 17.875 24.2401V26.8125C17.875 29.9536 20.4214 32.5 23.5625 32.5C25.9951 32.5 28.0719 30.9725 28.8844 28.8226C27.183 28.0637 26 26.3575 26 24.375C26 21.6824 28.1824 19.5 30.875 19.5C33.5676 19.5 35.75 21.6824 35.75 24.375C35.75 26.6029 34.255 28.4814 32.214 29.0631C31.2162 32.9095 27.7209 35.75 23.5625 35.75C18.6257 35.75 14.625 31.7493 14.625 26.8125V24.2401C10.0132 23.4666 6.5 19.4561 6.5 14.625V6.5C6.5 5.603 7.228 4.875 8.125 4.875H13Z" fill="white"/>
</svg>
