<svg width="60" height="60" viewBox="0 0 60 60" fill="none" xmlns="http://www.w3.org/2000/svg">
<path d="M47.5 17.5H60V22.5H47.5V17.5ZM42.5 30H60V35H42.5V30ZM50 42.5H60V47.5H50V42.5ZM5 55C5 49.6957 7.10714 44.6086 10.8579 40.8579C14.6086 37.1071 19.6957 35 25 35C30.3043 35 35.3914 37.1071 39.1421 40.8579C42.8929 44.6086 45 49.6957 45 55H40C40 51.0218 38.4196 47.2064 35.6066 44.3934C32.7936 41.5803 28.9782 40 25 40C21.0218 40 17.2064 41.5803 14.3934 44.3934C11.5804 47.2064 10 51.0218 10 55H5ZM25 32.5C16.7125 32.5 10 25.7875 10 17.5C10 9.2125 16.7125 2.5 25 2.5C33.2875 2.5 40 9.2125 40 17.5C40 25.7875 33.2875 32.5 25 32.5ZM25 27.5C30.525 27.5 35 23.025 35 17.5C35 11.975 30.525 7.5 25 7.5C19.475 7.5 15 11.975 15 17.5C15 23.025 19.475 27.5 25 27.5Z" fill="black"/>
</svg>
