<svg width="60" height="60" viewBox="0 0 60 60" fill="none" xmlns="http://www.w3.org/2000/svg">
<path d="M30 27.5C33.3152 27.5 36.4946 28.817 38.8388 31.1612C41.183 33.5054 42.5 36.6848 42.5 40V55H37.5V40C37.5001 38.087 36.7692 36.2462 35.4568 34.8543C34.1444 33.4625 32.3497 32.6247 30.44 32.5125L30 32.5C28.087 32.4999 26.2462 33.2308 24.8543 34.5432C23.4625 35.8556 22.6247 37.6503 22.5125 39.56L22.5 40V55H17.5V40C17.5 36.6848 18.817 33.5054 21.1612 31.1612C23.5054 28.817 26.6848 27.5 30 27.5ZM13.75 35C14.4475 35 15.125 35.0825 15.775 35.235C15.3476 36.5075 15.0944 37.832 15.0225 39.1725L15 40V40.215C14.7126 40.1122 14.4137 40.045 14.11 40.015L13.75 40C12.8178 40 11.919 40.3473 11.229 40.974C10.5389 41.6008 10.107 42.4621 10.0175 43.39L10 43.75V55H5V43.75C5 41.4294 5.92187 39.2038 7.56282 37.5628C9.20376 35.9219 11.4294 35 13.75 35ZM46.25 35C48.5706 35 50.7962 35.9219 52.4372 37.5628C54.0781 39.2038 55 41.4294 55 43.75V55H50V43.75C50 42.8178 49.6527 41.919 49.026 41.229C48.3992 40.5389 47.5379 40.107 46.61 40.0175L46.25 40C45.8125 40 45.3925 40.075 45 40.2125V40C45 38.335 44.73 36.735 44.2275 35.24C44.875 35.0825 45.5525 35 46.25 35ZM13.75 20C15.4076 20 16.9973 20.6585 18.1694 21.8306C19.3415 23.0027 20 24.5924 20 26.25C20 27.9076 19.3415 29.4973 18.1694 30.6694C16.9973 31.8415 15.4076 32.5 13.75 32.5C12.0924 32.5 10.5027 31.8415 9.33058 30.6694C8.15848 29.4973 7.5 27.9076 7.5 26.25C7.5 24.5924 8.15848 23.0027 9.33058 21.8306C10.5027 20.6585 12.0924 20 13.75 20ZM46.25 20C47.9076 20 49.4973 20.6585 50.6694 21.8306C51.8415 23.0027 52.5 24.5924 52.5 26.25C52.5 27.9076 51.8415 29.4973 50.6694 30.6694C49.4973 31.8415 47.9076 32.5 46.25 32.5C44.5924 32.5 43.0027 31.8415 41.8306 30.6694C40.6585 29.4973 40 27.9076 40 26.25C40 24.5924 40.6585 23.0027 41.8306 21.8306C43.0027 20.6585 44.5924 20 46.25 20ZM13.75 25C13.4185 25 13.1005 25.1317 12.8661 25.3661C12.6317 25.6005 12.5 25.9185 12.5 26.25C12.5 26.5815 12.6317 26.8995 12.8661 27.1339C13.1005 27.3683 13.4185 27.5 13.75 27.5C14.0815 27.5 14.3995 27.3683 14.6339 27.1339C14.8683 26.8995 15 26.5815 15 26.25C15 25.9185 14.8683 25.6005 14.6339 25.3661C14.3995 25.1317 14.0815 25 13.75 25ZM46.25 25C45.9185 25 45.6005 25.1317 45.3661 25.3661C45.1317 25.6005 45 25.9185 45 26.25C45 26.5815 45.1317 26.8995 45.3661 27.1339C45.6005 27.3683 45.9185 27.5 46.25 27.5C46.5815 27.5 46.8995 27.3683 47.1339 27.1339C47.3683 26.8995 47.5 26.5815 47.5 26.25C47.5 25.9185 47.3683 25.6005 47.1339 25.3661C46.8995 25.1317 46.5815 25 46.25 25ZM30 5C32.6522 5 35.1957 6.05357 37.0711 7.92893C38.9464 9.8043 40 12.3478 40 15C40 17.6522 38.9464 20.1957 37.0711 22.0711C35.1957 23.9464 32.6522 25 30 25C27.3478 25 24.8043 23.9464 22.9289 22.0711C21.0536 20.1957 20 17.6522 20 15C20 12.3478 21.0536 9.8043 22.9289 7.92893C24.8043 6.05357 27.3478 5 30 5ZM30 10C28.6739 10 27.4021 10.5268 26.4645 11.4645C25.5268 12.4021 25 13.6739 25 15C25 16.3261 25.5268 17.5979 26.4645 18.5355C27.4021 19.4732 28.6739 20 30 20C31.3261 20 32.5979 19.4732 33.5355 18.5355C34.4732 17.5979 35 16.3261 35 15C35 13.6739 34.4732 12.4021 33.5355 11.4645C32.5979 10.5268 31.3261 10 30 10Z" fill="black"/>
</svg>
