<svg width="30" height="40" viewBox="0 0 30 40" fill="none" xmlns="http://www.w3.org/2000/svg">
<path d="M27.668 18.4939C30.7773 21.3866 30.7773 26.0805 27.668 28.975L16.4073 39.458C15.631 40.1807 14.369 40.1807 13.5927 39.458L2.33196 28.975C-0.777321 26.0805 -0.777321 21.3866 2.33196 18.492C5.44124 15.5975 10.4834 15.5975 13.5927 18.492L14.998 19.8022L16.4073 18.492C19.5166 15.5975 24.5588 15.5975 27.668 18.492V18.4939ZM5.14664 21.1105C3.59399 22.5577 3.59399 24.9056 5.14664 26.3529L15 35.5257L24.8534 26.3529C26.406 24.9056 26.406 22.5577 24.8534 21.1105C23.2987 19.6651 20.7767 19.6651 19.22 21.1142L14.996 25.039L10.776 21.1105C9.22334 19.6651 6.70128 19.6651 5.14664 21.1105ZM15 0C19.3992 0 22.9623 3.31704 22.9623 7.41238C22.9623 11.5077 19.3992 14.8248 15 14.8248C10.6008 14.8248 7.03769 11.5077 7.03769 7.41238C7.03769 3.31704 10.6008 0 15 0ZM15 3.70619C12.8004 3.70619 11.0188 5.36471 11.0188 7.41238C11.0188 9.46005 12.8004 11.1186 15 11.1186C17.1996 11.1186 18.9812 9.46005 18.9812 7.41238C18.9812 5.36471 17.1996 3.70619 15 3.70619Z" fill="#FDFBFB"/>
</svg>
