<svg width="60" height="60" viewBox="0 0 60 60" fill="none" xmlns="http://www.w3.org/2000/svg">
<path d="M5 55C5 49.6957 7.10714 44.6086 10.8579 40.8579C14.6086 37.1071 19.6957 35 25 35C30.3043 35 35.3914 37.1071 39.1421 40.8579C42.8929 44.6086 45 49.6957 45 55H40C40 51.0218 38.4196 47.2064 35.6066 44.3934C32.7936 41.5803 28.9782 40 25 40C21.0218 40 17.2064 41.5803 14.3934 44.3934C11.5804 47.2064 10 51.0218 10 55H5ZM25 32.5C16.7125 32.5 10 25.7875 10 17.5C10 9.2125 16.7125 2.5 25 2.5C33.2875 2.5 40 9.2125 40 17.5C40 25.7875 33.2875 32.5 25 32.5ZM25 27.5C30.525 27.5 35 23.025 35 17.5C35 11.975 30.525 7.5 25 7.5C19.475 7.5 15 11.975 15 17.5C15 23.025 19.475 27.5 25 27.5ZM45.71 36.7575C49.2233 38.3398 52.2049 40.9031 54.2965 44.1393C56.388 47.3755 57.5004 51.1468 57.5 55H52.5C52.5006 52.11 51.6664 49.2812 50.0977 46.854C48.5291 44.4267 46.2927 42.5042 43.6575 41.3175L45.7075 36.7575H45.71ZM43.99 8.5325C46.5088 9.57074 48.6624 11.3338 50.1775 13.5981C51.6927 15.8623 52.501 18.5256 52.5 21.25C52.5011 24.6808 51.2192 27.9881 48.9064 30.5221C46.5935 33.0561 43.4167 34.6337 40 34.945V29.9125C41.8524 29.6472 43.5709 28.795 44.9033 27.4811C46.2357 26.1672 47.1117 24.4608 47.4029 22.6123C47.694 20.7639 47.3849 18.8707 46.521 17.2109C45.657 15.551 44.2836 14.2119 42.6025 13.39L43.99 8.5325Z" fill="black"/>
</svg>
