<svg width="39" height="39" viewBox="0 0 39 39" fill="none" xmlns="http://www.w3.org/2000/svg">
<path d="M17.875 3.25C24.4855 3.25 29.9422 8.1835 30.7677 14.5681L34.424 20.319C34.6645 20.6976 34.6157 21.2615 34.0584 21.502L30.875 22.8638V27.625C30.875 29.4206 29.4206 30.875 27.625 30.875H24.3766L24.375 35.75H9.75V29.7472C9.75 27.8298 9.0415 26.0146 7.7285 24.3766C5.94263 22.1504 4.875 19.3245 4.875 16.25C4.875 9.07075 10.6957 3.25 17.875 3.25ZM17.875 6.5C12.4898 6.5 8.125 10.8648 8.125 16.25C8.125 18.5006 8.8855 20.6261 10.2635 22.3438C12.0412 24.5602 13 27.0839 13 29.7472V32.5H21.125L21.1283 27.625H27.625V20.722L30.1437 19.643L27.6364 15.7024L27.5438 14.9841C26.9198 10.1579 22.789 6.5 17.875 6.5ZM17.0138 12.6149L17.875 13.4761L18.7362 12.6149C19.8477 11.5034 21.6483 11.5034 22.7581 12.6149C23.8696 13.7248 23.8696 15.5253 22.7581 16.6351L17.875 21.5199L12.9919 16.6351C11.8804 15.5253 11.8804 13.7248 12.9919 12.6149C14.1017 11.5034 15.9023 11.5034 17.0138 12.6149Z" fill="white"/>
</svg>
