<svg width="39" height="39" viewBox="0 0 39 39" fill="none" xmlns="http://www.w3.org/2000/svg">
<path d="M19.5 39C8.73015 39 0 30.2698 0 19.5C0 8.73015 8.73015 0 19.5 0C30.2698 0 39 8.73015 39 19.5C39 30.2698 30.2698 39 19.5 39ZM19.5 35.1C23.6374 35.1 27.6053 33.4564 30.5309 30.5309C33.4564 27.6053 35.1 23.6374 35.1 19.5C35.1 15.3626 33.4564 11.3947 30.5309 8.46913C27.6053 5.54357 23.6374 3.9 19.5 3.9C15.3626 3.9 11.3947 5.54357 8.46913 8.46913C5.54357 11.3947 3.9 15.3626 3.9 19.5C3.9 23.6374 5.54357 27.6053 8.46913 30.5309C11.3947 33.4564 15.3626 35.1 19.5 35.1ZM12.675 23.4H23.4C23.6586 23.4 23.9066 23.2973 24.0894 23.1144C24.2723 22.9316 24.375 22.6836 24.375 22.425C24.375 22.1664 24.2723 21.9184 24.0894 21.7356C23.9066 21.5527 23.6586 21.45 23.4 21.45H15.6C14.3071 21.45 13.0671 20.9364 12.1529 20.0221C11.2386 19.1079 10.725 17.8679 10.725 16.575C10.725 15.2821 11.2386 14.0421 12.1529 13.1279C13.0671 12.2136 14.3071 11.7 15.6 11.7H17.55V7.8H21.45V11.7H26.325V15.6H15.6C15.3414 15.6 15.0934 15.7027 14.9106 15.8856C14.7277 16.0684 14.625 16.3164 14.625 16.575C14.625 16.8336 14.7277 17.0816 14.9106 17.2644C15.0934 17.4473 15.3414 17.55 15.6 17.55H23.4C24.6929 17.55 25.9329 18.0636 26.8471 18.9779C27.7614 19.8921 28.275 21.1321 28.275 22.425C28.275 23.7179 27.7614 24.9579 26.8471 25.8721C25.9329 26.7864 24.6929 27.3 23.4 27.3H21.45V31.2H17.55V27.3H12.675V23.4Z" fill="white"/>
</svg>
