<svg width="39" height="39" viewBox="0 0 39 39" fill="none" xmlns="http://www.w3.org/2000/svg">
<path d="M19.5 24.375C26.13 24.375 31.5998 29.3377 32.3993 35.75H6.60077C7.40027 29.3377 12.87 24.375 19.5 24.375ZM16.5539 28.08C14.2236 28.8178 12.2623 30.4086 11.05 32.5H19.5L16.5539 28.08ZM22.4478 28.08L19.5 32.5H27.9484C26.7378 30.4086 24.7764 28.8178 22.4478 28.08ZM29.25 3.25V13C29.25 18.3853 24.8853 22.75 19.5 22.75C14.1148 22.75 9.75002 18.3853 9.75002 13V3.25H29.25ZM13 13C13 16.5913 15.9088 19.5 19.5 19.5C23.0913 19.5 26 16.5913 26 13H13ZM26 6.5H13V9.75H26V6.5Z" fill="white"/>
</svg>
