<svg width="90" height="90" viewBox="0 0 90 90" fill="none" xmlns="http://www.w3.org/2000/svg">
<path d="M34.9875 43.1249H43.125C47.6005 43.1249 51.8927 44.9028 55.0574 48.0674C58.2221 51.2321 60 55.5243 60 59.9999H33.7462L33.75 63.7499H63.75V59.9999C63.7382 56.0097 62.5853 52.1062 60.4275 48.7499H71.25C74.7947 48.7489 78.2671 49.7527 81.2645 51.645C84.2619 53.5373 86.6615 56.2405 88.185 59.4411C79.3163 71.1449 64.9575 78.7499 48.75 78.7499C38.3963 78.7499 29.625 76.5374 22.5 72.6561V37.7661C27.0623 38.4196 31.3705 40.2684 34.9875 43.1249ZM15 33.7499C15.9185 33.75 16.805 34.0872 17.4914 34.6975C18.1778 35.3079 18.6163 36.1489 18.7238 37.0611L18.75 37.4999V71.2499C18.75 72.2444 18.3549 73.1983 17.6516 73.9015C16.9484 74.6048 15.9946 74.9999 15 74.9999H7.5C6.50544 74.9999 5.55161 74.6048 4.84835 73.9015C4.14509 73.1983 3.75 72.2444 3.75 71.2499V37.4999C3.75 36.5053 4.14509 35.5515 4.84835 34.8482C5.55161 34.145 6.50544 33.7499 7.5 33.7499H15ZM51.1725 13.4061L52.5 14.7374L53.8275 13.4099C54.6968 12.5332 55.7307 11.8368 56.8698 11.3608C58.0089 10.8848 59.2309 10.6384 60.4655 10.6359C61.7 10.6333 62.923 10.8747 64.064 11.3461C65.2051 11.8174 66.2418 12.5095 67.1147 13.3827C67.9876 14.2558 68.6794 15.2927 69.1504 16.4339C69.6215 17.5751 69.8625 18.7981 69.8596 20.0327C69.8567 21.2673 69.61 22.4892 69.1337 23.6281C68.6573 24.7671 67.9607 25.8008 67.0837 26.6699L52.5 41.2499L37.9125 26.6624C37.0358 25.7931 36.3395 24.7592 35.8634 23.6201C35.3874 22.4809 35.141 21.259 35.1385 20.0244C35.136 18.7898 35.3773 17.5669 35.8487 16.4258C36.3201 15.2847 37.0122 14.248 37.8853 13.3752C38.7584 12.5023 39.7953 11.8105 40.9365 11.3394C42.0777 10.8684 43.3007 10.6274 44.5353 10.6302C45.7699 10.6331 46.9918 10.8798 48.1308 11.3562C49.2698 11.8325 50.3035 12.5292 51.1725 13.4061Z" fill="#FE8F8F"/>
</svg>
