<svg width="30" height="30" viewBox="0 0 30 30" fill="none" xmlns="http://www.w3.org/2000/svg">
<path d="M7.5 23.75H3.75C3.41848 23.75 3.10054 23.6183 2.86612 23.3839C2.6317 23.1495 2.5 22.8315 2.5 22.5V10C2.5 9.66848 2.6317 9.35054 2.86612 9.11612C3.10054 8.8817 3.41848 8.75 3.75 8.75H7.5V3.75C7.5 3.41848 7.6317 3.10054 7.86612 2.86612C8.10054 2.6317 8.41848 2.5 8.75 2.5H21.25C21.5815 2.5 21.8995 2.6317 22.1339 2.86612C22.3683 3.10054 22.5 3.41848 22.5 3.75V8.75H26.25C26.5815 8.75 26.8995 8.8817 27.1339 9.11612C27.3683 9.35054 27.5 9.66848 27.5 10V22.5C27.5 22.8315 27.3683 23.1495 27.1339 23.3839C26.8995 23.6183 26.5815 23.75 26.25 23.75H22.5V26.25C22.5 26.5815 22.3683 26.8995 22.1339 27.1339C21.8995 27.3683 21.5815 27.5 21.25 27.5H8.75C8.41848 27.5 8.10054 27.3683 7.86612 27.1339C7.6317 26.8995 7.5 26.5815 7.5 26.25V23.75ZM7.5 21.25V20C7.5 19.6685 7.6317 19.3505 7.86612 19.1161C8.10054 18.8817 8.41848 18.75 8.75 18.75H21.25C21.5815 18.75 21.8995 18.8817 22.1339 19.1161C22.3683 19.3505 22.5 19.6685 22.5 20V21.25H25V11.25H5V21.25H7.5ZM10 5V8.75H20V5H10ZM10 21.25V25H20V21.25H10ZM6.25 12.5H10V15H6.25V12.5Z" fill="white"/>
</svg>
