<svg width="39" height="39" viewBox="0 0 39 39" fill="none" xmlns="http://www.w3.org/2000/svg">
<path d="M11.375 9.75V4.875C11.375 4.44402 11.5462 4.0307 11.851 3.72595C12.1557 3.4212 12.569 3.25 13 3.25H32.5C32.931 3.25 33.3443 3.4212 33.649 3.72595C33.9538 4.0307 34.125 4.44402 34.125 4.875V27.625C34.125 28.056 33.9538 28.4693 33.649 28.7741C33.3443 29.0788 32.931 29.25 32.5 29.25H27.625V34.125C27.625 35.022 26.8937 35.75 25.9886 35.75H6.51137C6.29708 35.7513 6.08465 35.7102 5.88627 35.6291C5.6879 35.5481 5.5075 35.4286 5.35545 35.2776C5.20339 35.1266 5.08266 34.947 5.00021 34.7492C4.91776 34.5514 4.87521 34.3393 4.875 34.125L4.87988 11.375C4.87988 10.478 5.61112 9.75 6.51462 9.75H11.375ZM8.12825 13L8.125 32.5H24.375V13H8.12825ZM14.625 9.75H27.625V26H30.875V6.5H14.625V9.75ZM11.375 17.875H21.125V21.125H11.375V17.875ZM11.375 24.375H21.125V27.625H11.375V24.375Z" fill="white"/>
</svg>
