<svg width="30" height="32" viewBox="0 0 30 32" fill="none" xmlns="http://www.w3.org/2000/svg">
<path d="M21.3542 19.7083H20.0046L19.5263 19.2246C21.2004 17.1821 22.2083 14.5304 22.2083 11.6458C22.2083 5.21375 17.2371 0 11.1042 0C4.97125 0 0 5.21375 0 11.6458C0 18.0779 4.97125 23.2917 11.1042 23.2917C13.8546 23.2917 16.3829 22.2346 18.3304 20.4788L18.7917 20.9804V22.3958L27.3333 31.3363L29.8787 28.6667L21.3542 19.7083ZM11.1042 19.7083C6.85042 19.7083 3.41667 16.1071 3.41667 11.6458C3.41667 7.18458 6.85042 3.58333 11.1042 3.58333C15.3579 3.58333 18.7917 7.18458 18.7917 11.6458C18.7917 16.1071 15.3579 19.7083 11.1042 19.7083Z" fill="black"/>
</svg>
