<svg width="45" height="43" viewBox="0 0 45 43" fill="none" xmlns="http://www.w3.org/2000/svg">
<path d="M26.25 25.5349V29.2795C24.553 28.7062 22.7368 28.5303 20.9539 28.7667C19.171 29.0031 17.4735 29.6448 16.0039 30.638C14.5344 31.6311 13.3356 32.9467 12.5084 34.4743C11.6812 36.0018 11.2497 37.6968 11.25 39.4167L7.5 39.415C7.49942 37.2271 8.02298 35.0682 9.03056 33.1036C10.0381 31.139 11.503 29.4209 13.3129 28.0809C15.1228 26.7409 17.2297 25.8147 19.4722 25.373C21.7146 24.9314 24.0331 24.9862 26.25 25.5331V25.5349ZM22.5 23.2917C16.2844 23.2917 11.25 18.4811 11.25 12.5417C11.25 6.60237 16.2844 1.79175 22.5 1.79175C28.7156 1.79175 33.75 6.60237 33.75 12.5417C33.75 18.4811 28.7156 23.2917 22.5 23.2917ZM22.5 19.7084C26.6437 19.7084 30 16.5013 30 12.5417C30 8.58216 26.6437 5.37508 22.5 5.37508C18.3562 5.37508 15 8.58216 15 12.5417C15 16.5013 18.3562 19.7084 22.5 19.7084ZM33.75 30.4584V25.0834H37.5V30.4584H43.125V34.0417H37.5V39.4167H33.75V34.0417H28.125V30.4584H33.75Z" fill="black"/>
</svg>
